<?xml version="1.0" encoding="UTF-8" standalone="no"?>
<svg
   viewBox="0 0 612 612"
   version="1.1"
   id="svg4"
   sodipodi:docname="default-video-thumbnail.svg"
   width="612"
   height="612"
   inkscape:version="1.2.2 (b0a8486, 2022-12-01)"
   xmlns:inkscape="http://www.inkscape.org/namespaces/inkscape"
   xmlns:sodipodi="http://sodipodi.sourceforge.net/DTD/sodipodi-0.dtd"
   xmlns="http://www.w3.org/2000/svg"
   xmlns:svg="http://www.w3.org/2000/svg">
  <defs
     id="defs8" />
  <sodipodi:namedview
     id="namedview6"
     pagecolor="#ffffff"
     bordercolor="#000000"
     borderopacity="0.25"
     inkscape:showpageshadow="2"
     inkscape:pageopacity="0.0"
     inkscape:pagecheckerboard="0"
     inkscape:deskcolor="#d1d1d1"
     showgrid="false"
     inkscape:zoom="0.4609375"
     inkscape:cx="311.32203"
     inkscape:cy="306.98305"
     inkscape:window-width="1308"
     inkscape:window-height="549"
     inkscape:window-x="60"
     inkscape:window-y="23"
     inkscape:window-maximized="0"
     inkscape:current-layer="svg4" />
  <rect
     style="fill:#ffffff;stroke:#ffffff;"
     id="background"
     width="612"
     height="612"
     x="0"
     y="0" />
  <!--! Font Awesome Pro 6.4.0 by @fontawesome - https://fontawesome.com License - https://fontawesome.com/license (Commercial License) Copyright 2023 Fonticons, Inc. -->
  <path
     d="m 50,306 a 256,256 0 1 1 512,0 256,256 0 1 1 -512,0 z M 238.3,197.1 C 230.7,201.3 226,209.4 226,218 v 176 c 0,8.7 4.7,16.7 12.3,20.9 7.6,4.2 16.8,4.1 24.3,-0.5 l 144,-88 c 7.1,-4.4 11.5,-12.1 11.5,-20.5 0,-8.4 -4.4,-16.1 -11.5,-20.5 l -144,-88 c -7.4,-4.5 -16.7,-4.7 -24.3,-0.5 z"
     id="content" />
</svg>
