<?xml version="1.0" encoding="UTF-8" standalone="no"?>
<svg
   viewBox="0 0 700 700"
   version="1.1"
   id="svg4"
   sodipodi:docname="default-course-avatar.svg"
   width="700"
   height="700"
   inkscape:version="1.2.2 (b0a8486, 2022-12-01)"
   xmlns:inkscape="http://www.inkscape.org/namespaces/inkscape"
   xmlns:sodipodi="http://sodipodi.sourceforge.net/DTD/sodipodi-0.dtd"
   xmlns="http://www.w3.org/2000/svg"
   xmlns:svg="http://www.w3.org/2000/svg">
  <defs
     id="defs8" />
  <sodipodi:namedview
     id="namedview6"
     pagecolor="#ffffff"
     bordercolor="#000000"
     borderopacity="0.25"
     inkscape:showpageshadow="2"
     inkscape:pageopacity="0.0"
     inkscape:pagecheckerboard="0"
     inkscape:deskcolor="#d1d1d1"
     showgrid="false"
     showguides="false"
     inkscape:zoom="0.36875"
     inkscape:cx="230.50847"
     inkscape:cy="244.0678"
     inkscape:window-width="1309"
     inkscape:window-height="456"
     inkscape:window-x="140"
     inkscape:window-y="23"
     inkscape:window-maximized="0"
     inkscape:current-layer="svg4" />
  <!--! Font Awesome Pro 6.3.0 by @fontawesome - https://fontawesome.com License - https://fontawesome.com/license (Commercial License) Copyright 2023 Fonticons, Inc. -->
  <rect
     style="fill:#ffffff;fill-opacity:1;stroke:#ffffff;"
     id="background"
     width="700"
     height="700"
     x="0"
     y="0"
     inkscape:label="background" />
  <path
     d="m 350.0077,126 c -8.09981,0 -16.09961,1.39997 -23.69943,4.0999 L 45.815012,231.39746 c -9.499772,3.49992 -15.79962,12.49971 -15.79962,22.59946 0,10.09976 6.299848,19.09954 15.79962,22.59946 l 57.898608,20.89949 c -16.399606,25.79938 -25.699382,56.29865 -25.699382,88.39789 v 28.09931 c 0,28.39933 -10.79974,57.69862 -22.299463,80.79807 -6.499845,12.99968 -13.899667,25.79938 -22.49946,37.59909 -3.199923,4.2999 -4.099901,9.89976 -2.299945,14.99964 1.799957,5.09987 5.999856,8.89978 11.199731,10.19975 l 63.998459,15.99962 c 4.1999,1.09998 8.69979,0.3 12.3997,-1.99995 3.69991,-2.29995 6.29985,-6.09985 7.09983,-10.39975 8.59979,-42.79897 4.2999,-81.19805 -2.09995,-108.69739 -3.19992,-14.19966 -7.49982,-28.69931 -13.49967,-41.99899 v -24.5994 c 0,-30.19928 10.19975,-58.6986 27.89933,-81.49805 12.89969,-15.49963 29.59929,-27.99932 49.19882,-35.69913 l 156.99622,-61.69853 c 8.1998,-3.19992 17.49958,0.79998 20.6995,8.99978 3.19993,8.19981 -0.79998,17.49958 -8.99978,20.6995 l -156.99623,61.69853 c -12.3997,4.89988 -23.29943,12.3997 -32.19922,21.59948 l 159.59616,57.59862 c 7.59982,2.69993 15.59962,4.09989 23.69943,4.09989 8.0998,0 16.09961,-1.39996 23.69943,-4.09989 L 654.20039,276.59638 C 663.70015,273.19646 670,264.09668 670,253.99692 c 0,-10.09975 -6.29985,-19.09954 -15.79961,-22.59946 L 373.70713,130.0999 C 366.10731,127.39997 358.10751,126 350.0077,126 Z M 158.01232,501.99096 c 0,35.29915 85.99793,71.99827 191.99538,71.99827 105.99745,0 191.99538,-36.69912 191.99538,-71.99827 l -15.29963,-145.3965 -142.19658,51.39876 c -11.09973,3.99991 -22.79946,5.99985 -34.49917,5.99985 -11.69972,0 -23.49944,-1.99994 -34.49917,-5.99985 L 173.31195,356.59446 Z"
     id="content"
     style="display:inline;stroke-width:0.999976" />
</svg>
